Coordinates
version=1
nRows=16
nColumns=36
inDegrees=yes

Units are S.I. units (second, meters, Newtons, ...)
If the header above contains a line with 'inDegrees', this indicates whether rotational values are in degrees (yes) or radians (no).

endheader
time	pelvis_tilt	pelvis_list	pelvis_rotation	pelvis_tx	pelvis_ty	pelvis_tz	hip_flexion_r	hip_adduction_r	hip_rotation_r	knee_angle_r	knee_angle_r_beta	ankle_angle_r	subtalar_angle_r	mtp_angle_r	hip_flexion_l	hip_adduction_l	hip_rotation_l	knee_angle_l	knee_angle_l_beta	ankle_angle_l	subtalar_angle_l	mtp_angle_l	lumbar_extension	lumbar_bending	lumbar_rotation	arm_flex_r	arm_add_r	arm_rot_r	elbow_flex_r	pro_sup_r	arm_flex_l	arm_add_l	arm_rot_l	elbow_flex_l	pro_sup_l
      3.27500000	    -13.75288632	     -0.14254515	     -6.51870253	      0.12134541	      0.66661811	     -0.10659456	     73.38379494	     -3.19799062	     10.09944195	     87.94354664	      1.53490444	     20.52914907	     -6.61722025	     -7.49999987	     79.47300937	      0.07522549	      9.57815519	     80.57531587	      1.40630456	     -0.03928994	    -32.27760465	     -7.49999987	    -50.24453294	      2.92236879	      3.20591580	     35.90268267	    -33.73957610	    -10.76687076	    120.94023711	     93.64549155	     30.19878113	    -22.10205584	      4.34561402	    123.10142893	     88.97790702
      3.27916670	    -13.91244133	     -0.15384177	     -6.34029973	      0.12570048	      0.66442303	     -0.10182367	     73.56534967	     -3.03888593	     10.04001379	     88.37737667	      1.54247621	     20.77388144	     -6.88939154	     -7.49999987	     79.72818533	      0.05346363	      9.79927468	     80.94023321	      1.41267357	      0.12490887	    -32.27943635	     -7.49999987	    -50.04390775	      2.94464362	      3.16762079	     36.30348260	    -33.79471838	    -10.80937832	    120.97090964	     93.76033030	     31.13329490	    -22.47337013	      4.19442498	    123.17256005	     89.07482864
      3.28333330	    -14.06581854	     -0.33365357	     -6.21913822	      0.12391666	      0.66413364	     -0.09808192	     73.67723111	     -2.50487344	      9.81050073	     88.59813490	      1.54632917	     20.67494030	     -7.57606137	     -7.49999987	     80.00423436	     -0.35594264	     10.00739109	     81.21693966	      1.41750301	      0.89998874	    -31.33652717	     -7.49999987	    -49.92536320	      2.82329728	      3.35499604	     36.85775547	    -34.25577406	     -9.85340524	    121.11960148	     89.41937359	     32.35662460	    -23.77394091	      5.91111327	    123.43877167	     85.65489065
      3.28750000	    -14.22462695	     -0.30719565	     -6.05767397	      0.12673256	      0.66248410	     -0.10132433	     73.89128749	     -2.42311885	      9.75304138	     89.01166298	      1.55354659	     20.89576158	     -8.29858983	     -7.49999987	     80.27186824	     -0.29625075	     10.07495782	     81.42816830	      1.42118964	      0.81271675	    -31.30257429	     -7.49999987	    -49.71158721	      2.71000309	      3.46049053	     37.14373665	    -34.09873911	    -11.08285955	    121.22524591	     99.73366008	     33.43625102	    -23.97797140	      5.30905389	    123.38340447	     94.39523860
      3.29166670	    -14.41675196	     -0.29014764	     -5.96400723	      0.12992328	      0.66436321	     -0.10551307	     73.91496164	     -2.56859265	      9.77699054	     89.02400517	      1.55376200	     20.94822131	     -8.49698447	     -7.49999987	     80.34885128	     -0.11818005	      9.95517653	     81.43505352	      1.42130981	      0.97164513	    -31.35291157	     -7.49999987	    -49.52164659	      2.78511732	      3.48926191	     37.67214228	    -34.26846662	    -11.07996654	    121.34100397	     99.73050417	     34.08318911	    -24.30252869	      5.27530565	    123.46994607	     94.44646684
      3.29583330	    -14.35973447	     -0.26133655	     -5.98938684	      0.13110697	      0.66409016	     -0.10917511	     73.61538516	     -2.78929172	      9.94176744	     88.88725068	      1.55137519	     20.94371980	     -8.77857195	     -7.49999987	     80.09535593	      0.12385329	      9.76799111	     81.38049639	      1.42035761	      1.39842350	    -31.33690223	     -7.49999987	    -49.54606963	      2.92689476	      3.29044274	     38.79507742	    -34.46825477	    -10.19406840	    121.25169051	    100.29795248	     34.62307899	    -24.95454380	      5.21515931	    123.68232778	     95.83010359
      3.30000000	    -14.43177902	     -0.26575177	     -5.92110026	      0.13352604	      0.66378613	     -0.10639166	     73.38620381	     -2.81969070	     10.09300513	     88.78888420	      1.54965837	     20.94486968	     -8.76747458	     -7.49999987	     80.12297006	      0.22400303	      9.67711843	     81.51393352	      1.42268653	      1.42707117	    -31.39044198	     -7.49999987	    -49.27757489	      2.96707949	      3.33654425	     38.92949132	    -34.52894571	    -10.22707591	    121.30703809	    100.29689868	     34.81387493	    -25.04780430	      5.15240086	    123.73988232	     95.83286548
      3.30416670	    -14.39319378	     -0.26465697	     -5.84315074	      0.13160674	      0.66668044	     -0.10638134	     73.21710124	     -2.79083001	     10.31689077	     88.53282647	      1.54518932	     20.54600075	     -9.06346062	     -7.49999987	     79.88477438	      0.32339525	      9.59557478	     81.38855832	      1.42049832	      1.38825808	    -31.46976910	     -7.49999987	    -49.52795901	      2.98384585	      3.43984259	     39.82351357	    -35.33589662	     -9.43328220	    121.77541592	     93.96918092	     36.35153709	    -26.19525699	      6.15879133	    123.93719576	     90.72338585
      3.30833330	    -14.42874609	     -0.28965705	     -5.91980530	      0.13416685	      0.66770173	     -0.10960654	     72.94505864	     -2.76262470	     10.54034735	     88.10437790	      1.53771148	     20.41595989	     -8.96210729	     -7.49999987	     79.56946618	      0.42548522	      9.60521993	     81.12589261	      1.41591393	      1.43892966	    -31.61773052	     -7.49999987	    -49.55244041	      3.16027797	      3.55108483	     40.48323917	    -35.72632695	     -8.95077939	    122.02671156	     90.97850362	     37.43857841	    -27.00148189	      6.74521361	    123.89616386	     88.03370154
      3.31250000	    -14.43658065	     -0.22768356	     -5.91486255	      0.14031708	      0.66612988	     -0.10959308	     72.67382263	     -2.81244498	     10.76457923	     88.18397146	      1.53910065	     20.53377081	     -8.79860934	     -7.49999987	     79.44226001	      0.46910003	      9.43266620	     81.38808347	      1.42049003	      1.64340290	    -31.87753485	     -7.49999987	    -49.44070239	      3.16829607	      3.62561725	     40.05352776	    -35.62254086	    -10.50401233	    122.56400238	    101.66890427	     38.35930026	    -27.24081851	      6.13382932	    123.48093491	     96.90596873
      3.31666670	    -14.30770150	     -0.24577534	     -5.80352336	      0.13957832	      0.66887197	     -0.10763352	     72.17016203	     -2.75058683	     10.82892611	     88.04060896	      1.53659850	     20.55799715	     -8.97684105	     -7.49999987	     79.07911622	      0.48336246	      9.32138651	     81.31686108	      1.41924696	      1.62935313	    -32.13894228	     -7.49999987	    -49.72569917	      3.21658144	      3.44199527	     40.40080073	    -35.87480754	    -10.30141644	    123.14708453	     96.63870231	     39.17460157	    -28.16155396	      6.16524926	    123.85030163	     92.83695531
      3.32083330	    -14.25195897	     -0.21696739	     -5.78575587	      0.14164639	      0.66828800	     -0.11008779	     71.94226901	     -2.78426026	     10.90029742	     88.13458844	      1.53823875	     20.63039363	     -9.13472892	     -7.49999987	     78.89627179	      0.49040667	      9.15250802	     81.33187870	      1.41950907	      1.72791630	    -32.24193091	     -7.49999987	    -49.52891753	      3.31627930	      3.33400499	     40.98279349	    -36.20273760	     -9.99281559	    123.04737799	    102.00575101	     39.70952970	    -28.53127178	      5.99602752	    123.60747654	     98.46467221
      3.32500000	    -14.24134430	     -0.17888085	     -5.80081385	      0.14024160	      0.66860481	     -0.11029029	     71.86940502	     -2.73553757	     10.94623990	     88.14201948	      1.53836845	     20.58427906	     -9.48845954	     -7.49999987	     78.87380174	      0.44334199	      8.98921797	     81.42489422	      1.42113250	      1.66314186	    -32.45421173	     -7.49999987	    -49.52134176	      3.31932861	      3.33133720	     41.34283028	    -36.90862298	     -9.42752960	    123.52600616	     95.56332670	     40.27730087	    -29.21522405	      6.55741080	    123.86041183	     93.18018416
      3.32916670	    -14.04425764	     -0.02695331	     -5.88707337	      0.14374311	      0.66821822	     -0.10973945	     71.62248639	     -2.75153869	     11.16644529	     88.12213889	      1.53802147	     20.69758446	     -9.61650411	     -7.49999987	     78.45789747	      0.40400209	      8.79848214	     81.27501174	      1.41851655	      2.26754560	    -32.06856401	     -7.49999987	    -49.60861779	      3.16181336	      3.24098297	     41.61648626	    -37.12864523	    -10.03655418	    124.15201517	     96.78649131	     40.57298298	    -29.50178394	      5.64126456	    124.21468071	     94.19776696
      3.33333330	    -14.09981121	      0.06291058	     -5.82266580	      0.14660934	      0.66959786	     -0.10848883	     71.42771317	     -2.79542993	     11.20391764	     88.00435842	      1.53596581	     20.87357489	     -9.93377147	     -7.49999987	     78.31110450	      0.43321173	      8.73214580	     81.24556862	      1.41800268	      2.64002525	    -31.73751526	     -7.49999987	    -49.28727127	      3.15131543	      3.10589493	     41.52911700	    -37.25522980	    -10.57045881	    124.62305114	    102.20615873	     40.85982734	    -30.01485333	      5.07988818	    124.45638510	     99.23336494
      3.33750000	    -13.86977667	      0.10967474	     -5.87197957	      0.14902669	      0.66960723	     -0.10969959	     70.98164727	     -2.79368478	     11.32184410	     88.04885923	      1.53674250	     21.08580044	     -9.96515609	     -7.49999987	     77.89797103	      0.37678583	      8.60221371	     81.34500972	      1.41973825	      3.27175717	    -31.32839985	     -7.49999987	    -49.13363876	      3.06265729	      3.10436575	     41.65424521	    -37.55373592	    -10.72435569	    124.95833115	    102.28335943	     41.12791874	    -30.24560729	      4.93525368	    124.68200370	     99.57053658
